<?xml version="1.0" encoding="UTF-8"?>
<svg version="1.1" xmlns="http://www.w3.org/2000/svg" width="300" height="300">
<path d="M0 0 C0.75178528 0.00215515 1.50357056 0.0043103 2.27813721 0.00653076 C13.22617183 0.05691007 23.62287991 0.45135228 34.25 3.3125 C35.03439453 3.51649414 35.81878906 3.72048828 36.62695312 3.93066406 C48.08240577 6.95057809 58.75432562 10.8317665 69.25 16.3125 C69.88856934 16.63557129 70.52713867 16.95864258 71.18505859 17.29150391 C106.48703081 35.25978181 131.81020842 67.47788205 144.05224609 104.75537109 C144.77502377 107.07902746 145.46220178 109.4085685 146.125 111.75 C146.31602295 112.42192383 146.5070459 113.09384766 146.70385742 113.78613281 C149.89469468 125.77384069 150.62621056 137.72479674 150.5625 150.0625 C150.56034485 150.81428528 150.5581897 151.56607056 150.55596924 152.34063721 C150.50558993 163.28867183 150.11114772 173.68537991 147.25 184.3125 C146.94400879 185.4890918 146.94400879 185.4890918 146.63183594 186.68945312 C143.61192191 198.14490577 139.7307335 208.81682562 134.25 219.3125 C133.92692871 219.95106934 133.60385742 220.58963867 133.27099609 221.24755859 C115.30271819 256.54953081 83.08461795 281.87270842 45.80712891 294.11474609 C43.48347254 294.83752377 41.1539315 295.52470178 38.8125 296.1875 C38.14057617 296.37852295 37.46865234 296.5695459 36.77636719 296.76635742 C24.78865931 299.95719468 12.83770326 300.68871056 0.5 300.625 C-0.25178528 300.62284485 -1.00357056 300.6206897 -1.77813721 300.61846924 C-12.72617183 300.56808993 -23.12287991 300.17364772 -33.75 297.3125 C-34.9265918 297.00650879 -34.9265918 297.00650879 -36.12695312 296.69433594 C-47.58240577 293.67442191 -58.25432562 289.7932335 -68.75 284.3125 C-69.707854 283.82789307 -69.707854 283.82789307 -70.68505859 283.33349609 C-105.98703081 265.36521819 -131.31020842 233.14711795 -143.55224609 195.86962891 C-144.27502377 193.54597254 -144.96220178 191.2164315 -145.625 188.875 C-145.81602295 188.20307617 -146.0070459 187.53115234 -146.20385742 186.83886719 C-149.39469468 174.85115931 -150.12621056 162.90020326 -150.0625 150.5625 C-150.06034485 149.81071472 -150.0581897 149.05892944 -150.05596924 148.28436279 C-150.00558993 137.33632817 -149.61114772 126.93962009 -146.75 116.3125 C-146.54600586 115.52810547 -146.34201172 114.74371094 -146.13183594 113.93554688 C-143.11192191 102.48009423 -139.2307335 91.80817438 -133.75 81.3125 C-133.42692871 80.67393066 -133.10385742 80.03536133 -132.77099609 79.37744141 C-114.80271819 44.07546919 -82.58461795 18.75229158 -45.30712891 6.51025391 C-42.98347254 5.78747623 -40.6539315 5.10029822 -38.3125 4.4375 C-37.64057617 4.24647705 -36.96865234 4.0554541 -36.27636719 3.85864258 C-24.28865931 0.66780532 -12.33770326 -0.06371056 0 0 Z " fill="#FCFCFC" transform="translate(149.75,-0.3125)"/>
<path d="M0 0 C20.39889346 -0.9923786 43.30922455 7.68108596 59 21 C59 21.66 59 22.32 59 23 C59.54011719 23.2165625 60.08023438 23.433125 60.63671875 23.65625 C78.37003006 33.73932288 89.44218274 57.32616014 95.02734375 76.0234375 C100.04540175 95.52549298 99.14826028 114.52238721 93.62597656 133.78125 C93.02313493 135.91799912 92.48300066 138.06102516 91.9609375 140.21875 C90.46332235 146.11180474 88.53879908 151.15591434 85.625 156.5 C85.03976563 157.5828125 84.45453125 158.665625 83.8515625 159.78125 C82.00933439 162.98377312 80.18156058 166.01943164 78 169 C77.34 169 76.68 169 76 169 C75.72800781 169.58652344 75.45601562 170.17304688 75.17578125 170.77734375 C66.03411396 188.05843573 42.13279646 201.69476381 24.11035156 207.43457031 C17.62777681 209.17145638 10.91663399 209.95490878 4.26269531 210.73413086 C2.13612255 210.98400545 0.01637107 211.26790355 -2.10546875 211.5546875 C-26.61772092 214.35749266 -51.30588725 207.6275981 -71.046875 192.6953125 C-72.90170369 191.17353316 -74.73978492 189.63105838 -76.55859375 188.06640625 C-78.6256214 186.31687405 -80.69476104 184.8184048 -82.9375 183.3125 C-101.57452664 169.33473002 -111.82833087 145.1571153 -115.5300293 122.79858398 C-116.00937403 118.92423347 -116.12945564 115.20361003 -116.1328125 111.30078125 C-116.13376923 110.58448044 -116.13472595 109.86817963 -116.13571167 109.13017273 C-116.13638823 107.62169303 -116.13457072 106.11321033 -116.13037109 104.60473633 C-116.12505514 102.33603095 -116.13031348 100.06752712 -116.13671875 97.79882812 C-116.15397372 73.5529378 -116.15397372 73.5529378 -112.25 67.375 C-111.70730469 66.47652344 -111.16460937 65.57804687 -110.60546875 64.65234375 C-110.07566406 63.77707031 -109.54585937 62.90179688 -109 62 C-108.17165181 60.3202227 -107.35858054 58.63280772 -106.5625 56.9375 C-101.90293448 47.6035767 -96.0910702 40.56826107 -88 34 C-88 37.81548936 -89.01149595 38.43607618 -91.5 41.25 C-107.57183283 60.76986789 -112.26489821 85.26150995 -111 110 C-110.95359375 111.13566406 -110.9071875 112.27132812 -110.859375 113.44140625 C-109.26900374 131.8353054 -102.31034671 151.3959809 -91 166 C-90.35804687 166.89847656 -89.71609375 167.79695312 -89.0546875 168.72265625 C-85.98516474 172.9150131 -83.50008739 175.36344573 -79 178 C-77.639193 179.1986796 -76.30631738 180.42965924 -75 181.6875 C-53.86166657 200.76099623 -26.58687739 207.14405484 1.06396484 205.90771484 C24.27427291 204.56194075 46.45453987 192.96491767 63 177 C64.34708203 175.34442591 65.68087127 173.67793175 67 172 C67.82628906 171.19691406 68.65257812 170.39382812 69.50390625 169.56640625 C85.69642959 152.91775549 92.40887475 127.56021384 92.25 105 C92.25773438 103.90171875 92.26546875 102.8034375 92.2734375 101.671875 C92.25662113 94.57536849 91.52428521 87.93046305 90 81 C89.34 81 88.68 81 88 81 C87.87625 80.030625 87.7525 79.06125 87.625 78.0625 C87.41875 77.051875 87.2125 76.04125 87 75 C86.34 74.67 85.68 74.34 85 74 C84.17578125 72.390625 84.17578125 72.390625 83.3125 70.25 C72.74848626 45.52150343 55.8531517 25.49170858 30.73925781 15.06103516 C26.49699634 13.42390871 22.21217081 11.92471903 17.86767578 10.58178711 C16.14487601 10.04512935 14.44031146 9.4508402 12.73828125 8.8515625 C7.54573726 7.66872594 2.55664025 7.74979716 -2.75 7.8125 C-4.28140625 7.8134668 -4.28140625 7.8134668 -5.84375 7.81445312 C-16.05629674 7.87277351 -25.4199393 8.34164101 -35 12 C-36.20785156 12.42410156 -37.41570312 12.84820312 -38.66015625 13.28515625 C-46.66176576 16.12693999 -54.02962138 19.37819132 -61.42578125 23.58203125 C-64 25 -64 25 -67 26 C-67.30035156 26.60328125 -67.60070312 27.2065625 -67.91015625 27.828125 C-69.29333791 30.58457303 -71.03295308 31.82636246 -73.4375 33.75 C-80.36963248 39.841874 -85.09438828 47.24759873 -90 55 C-90.39525879 55.61069336 -90.79051758 56.22138672 -91.19775391 56.85058594 C-96.808569 65.58925533 -99.87203283 73.89775585 -102 84 C-102.22429687 84.95648438 -102.44859375 85.91296875 -102.6796875 86.8984375 C-104.73082418 96.47977459 -104.95071401 106.49217149 -102.69140625 116.05078125 C-102.11650589 118.50303983 -101.61960646 120.9440119 -101.15234375 123.41796875 C-99.3495369 132.80063102 -97.16383677 141.34111217 -93 150 C-91.87095717 152.37308076 -90.74598281 154.74810127 -89.625 157.125 C-89.10164063 158.20007813 -88.57828125 159.27515625 -88.0390625 160.3828125 C-87.52472656 161.67832031 -87.52472656 161.67832031 -87 163 C-87.33 163.66 -87.66 164.32 -88 165 C-101.86725534 147.08637228 -108.17398476 126.21232563 -108.1875 103.75 C-108.19974609 102.69425781 -108.21199219 101.63851562 -108.22460938 100.55078125 C-108.26725812 77.3214302 -99.5603844 56.78994335 -85 39 C-84.24976563 38.02160156 -84.24976563 38.02160156 -83.484375 37.0234375 C-70.27466683 20.39742549 -46.91858694 7.58848828 -26.05932617 4.57519531 C-23.10373369 4.26935171 -20.1511741 4.02544692 -17.1875 3.8125 C-16.19041016 3.73064453 -15.19332031 3.64878906 -14.16601562 3.56445312 C-9.4340482 3.18979968 -4.75060836 2.89514786 0 3 C0 2.01 0 1.02 0 0 Z " fill="#101010" transform="translate(155,50)"/>
<path d="M0 0 C26.1995842 0 26.1995842 0 32 5 C34.77896461 10.07051919 35.78107427 15.64391711 34.375 21.3125 C30.62722674 29.1000808 20.40012286 32.22495393 13 35 C12.67 42.26 12.34 49.52 12 57 C3 57 3 57 0 56 C0 37.52 0 19.04 0 0 Z " fill="#034CAE" transform="translate(146,116)"/>
<path d="M0 0 C0.66 0.33 1.32 0.66 2 1 C1.57589844 1.55945313 1.15179688 2.11890625 0.71484375 2.6953125 C-12.8239917 21.2033469 -19.84933048 43.27639731 -16.68359375 66.30126953 C-12.84040555 87.63935934 -2.42900981 107.67351096 15 121 C30.52082909 131.71296301 46.27 137.5898827 65.1875 137.3125 C66.29802734 137.31572266 67.40855469 137.31894531 68.55273438 137.32226562 C74.96955976 137.28052401 80.81975983 136.73167299 87 135 C87.98226562 134.73960937 88.96453125 134.47921875 89.9765625 134.2109375 C104.32003867 129.68364561 115.54734592 122.72188911 126 112 C126.66515625 111.34386719 127.3303125 110.68773437 128.015625 110.01171875 C141.52532305 95.802194 148.43939164 75.1471603 148.3125 55.8125 C148.30404053 54.44230713 148.30404053 54.44230713 148.29541016 53.04443359 C147.99575933 36.13641294 143.36775216 19.56631399 133 6 C133.33 5.34 133.66 4.68 134 4 C148.07358417 21.79517026 152.91587784 42.60587986 151 65 C150.16173988 70.48101587 148.65935732 75.71306956 147 81 C146.66742188 82.17691406 146.33484375 83.35382813 145.9921875 84.56640625 C139.82975799 105.89229419 124.40572662 121.46292088 105.39428711 132.26928711 C99.53027404 135.43784197 93.4612557 137.39107071 87 139 C86.17628906 139.21269531 85.35257812 139.42539063 84.50390625 139.64453125 C72.85396021 142.45101738 59.3842799 144.08748339 48 140 C46.72125 139.938125 45.4425 139.87625 44.125 139.8125 C29.73690177 138.31825864 17.81264101 128.79585813 7 120 C6.18660156 119.3709375 5.37320313 118.741875 4.53515625 118.09375 C-10.3296635 106.08415305 -18.72977796 86.64910774 -21 68 C-21.1006007 65.35411706 -21.16369484 62.73508758 -21.16796875 60.08984375 C-21.17129715 59.3593129 -21.17462555 58.62878204 -21.17805481 57.87611389 C-21.18308485 56.34246443 -21.18546436 54.80880418 -21.18530273 53.27514648 C-21.18749727 50.94040912 -21.20571622 48.60613893 -21.22460938 46.27148438 C-21.22754262 44.7734391 -21.22952788 43.2753916 -21.23046875 41.77734375 C-21.23765427 41.08656235 -21.24483978 40.39578094 -21.25224304 39.68406677 C-21.22447441 33.74826007 -19.71702931 29.05487389 -16.94140625 23.87109375 C-16.55533203 23.14599609 -16.16925781 22.42089844 -15.77148438 21.67382812 C-15.37251953 20.93583984 -14.97355469 20.19785156 -14.5625 19.4375 C-14.16740234 18.69564453 -13.77230469 17.95378906 -13.36523438 17.18945312 C-7.36280242 5.97359442 -7.36280242 5.97359442 -3.3125 2.6875 C-2.68988281 2.17574219 -2.06726563 1.66398437 -1.42578125 1.13671875 C-0.95527344 0.76160156 -0.48476562 0.38648437 0 0 Z " fill="#111111" transform="translate(81,99)"/>
<path d="M0 0 C0 3.81548936 -1.01149595 4.43607618 -3.5 7.25 C-19.57183283 26.76986789 -24.26489821 51.26150995 -23 76 C-22.95359375 77.13566406 -22.9071875 78.27132812 -22.859375 79.44140625 C-21.26900374 97.8353054 -14.31034671 117.3959809 -3 132 C-2.35804687 132.89847656 -1.71609375 133.79695312 -1.0546875 134.72265625 C2.01483526 138.9150131 4.49991261 141.36344573 9 144 C10.360807 145.1986796 11.69368262 146.42965924 13 147.6875 C25.48859383 158.95618152 41.00460393 165.4672996 57 170 C58.93834841 170.58050794 60.87593353 171.16357494 62.8125 171.75 C64.20818801 172.16715317 65.60396057 172.58402437 67 173 C66.67 173.66 66.34 174.32 66 175 C53.42220751 178.55272499 39.49920989 172.08782514 28.65771484 166.24804688 C22.40781419 162.74906114 16.8844521 158.74885181 11.44140625 154.06640625 C9.3743786 152.31687405 7.30523896 150.8184048 5.0625 149.3125 C-13.57452664 135.33473002 -23.82833087 111.1571153 -27.5300293 88.79858398 C-28.00937403 84.92423347 -28.12945564 81.20361003 -28.1328125 77.30078125 C-28.13376923 76.58448044 -28.13472595 75.86817963 -28.13571167 75.13017273 C-28.13638823 73.62169303 -28.13457072 72.11321033 -28.13037109 70.60473633 C-28.12505514 68.33603095 -28.13031348 66.06752712 -28.13671875 63.79882812 C-28.15397372 39.5529378 -28.15397372 39.5529378 -24.25 33.375 C-23.70730469 32.47652344 -23.16460937 31.57804687 -22.60546875 30.65234375 C-22.07566406 29.77707031 -21.54585937 28.90179688 -21 28 C-20.17165181 26.3202227 -19.35858054 24.63280772 -18.5625 22.9375 C-13.90293448 13.6035767 -8.0910702 6.56826107 0 0 Z " fill="#0E0E0E" transform="translate(67,84)"/>
<path d="M0 0 C16.71240233 15.65041021 26.04603078 34.06060192 27.5859375 56.89453125 C27.99227714 79.92890965 19.38885586 100.15019847 3.71875 116.91796875 C2.61455397 118.03152238 1.47999758 119.11494367 0.3359375 120.1875 C-0.3240625 119.8575 -0.9840625 119.5275 -1.6640625 119.1875 C-1.20257813 118.78402344 -0.74109375 118.38054687 -0.265625 117.96484375 C10.04249957 108.36973175 17.08299892 96.56187264 21.3359375 83.1875 C21.68398438 82.15689453 21.68398438 82.15689453 22.0390625 81.10546875 C24.37912062 73.70085628 24.53075801 66.00562628 24.5234375 58.3125 C24.52263184 57.43424561 24.52182617 56.55599121 24.52099609 55.65112305 C24.46367189 49.59330396 24.0604773 44.03177378 22.3359375 38.1875 C21.6759375 37.8575 21.0159375 37.5275 20.3359375 37.1875 C19.52402304 35.40187653 18.786179 33.58229858 18.0859375 31.75 C15.68318769 25.82040689 12.87999055 20.50797666 9.3359375 15.1875 C8.84738281 14.43855469 8.35882813 13.68960938 7.85546875 12.91796875 C-0.42301012 1.24633557 -12.62442195 -5.66922192 -25.6640625 -10.8125 C-27.27474609 -11.48152344 -27.27474609 -11.48152344 -28.91796875 -12.1640625 C-47.71145226 -18.81302057 -69.59597151 -13.98108424 -87.24902344 -6.00732422 C-93.19560489 -3.1583234 -98.24841032 -0.18839275 -102.20703125 5.23046875 C-103.6640625 7.1875 -103.6640625 7.1875 -106.01953125 9.45703125 C-109.09205299 12.6293986 -111.39672793 15.99291603 -113.7890625 19.6875 C-114.21832031 20.33847656 -114.64757812 20.98945312 -115.08984375 21.66015625 C-116.29425638 23.49456934 -117.48149077 25.33895783 -118.6640625 27.1875 C-119.21449219 28.03441406 -119.76492187 28.88132813 -120.33203125 29.75390625 C-125.27262458 38.78026885 -126.02990425 48.72926815 -126.0390625 58.8125 C-126.04059326 59.7605249 -126.04212402 60.7085498 -126.04370117 61.68530273 C-125.9689878 66.35050603 -125.66020075 69.90558776 -123.6640625 74.1875 C-123.42578125 76.44140625 -123.42578125 76.44140625 -123.3515625 78.75 C-122.82055924 85.13152128 -120.2791366 90.41159721 -117.6640625 96.1875 C-116.85960548 98.05704808 -116.06685616 99.93170279 -115.2890625 101.8125 C-114.95132813 102.60914063 -114.61359375 103.40578125 -114.265625 104.2265625 C-113.6640625 106.1875 -113.6640625 106.1875 -114.6640625 108.1875 C-127.42618847 88.68582436 -134.18416976 67.57657613 -130.05078125 44.0390625 C-126.90331465 31.03323137 -120.71263718 18.11657781 -111.6640625 8.1875 C-110.94863281 7.38054687 -110.23320313 6.57359375 -109.49609375 5.7421875 C-80.82298675 -24.84869664 -31.92274133 -27.15023847 0 0 Z " fill="#101010" transform="translate(198.6640625,93.8125)"/>
<path d="M0 0 C4.62 0 9.24 0 14 0 C14.04955879 6.85016839 14.08579503 13.70023163 14.10986328 20.55053711 C14.11990049 22.87933165 14.13353314 25.20811366 14.15087891 27.53686523 C14.17522727 30.89049379 14.18650615 34.24395521 14.1953125 37.59765625 C14.20563507 38.63334244 14.21595764 39.66902863 14.22659302 40.73609924 C14.22743694 46.2136708 13.94881141 50.85450782 12 56 C8.01105453 59.35345171 1.36827422 59.7096482 -3.65625 59.5390625 C-7.22767871 58.7176339 -8.8957749 57.00166033 -11.015625 54.08984375 C-12.66604229 50.58598164 -12.40161901 47.81538057 -12 44 C-10.02 43.34 -8.04 42.68 -6 42 C-5.34 43.65 -4.68 45.3 -4 47 C-3.01 47 -2.02 47 -1 47 C0.07483628 41.77086572 0.12930634 36.75493201 0.09765625 31.4453125 C0.09553383 30.09299026 0.09553383 30.09299026 0.09336853 28.71334839 C0.0877974 25.850531 0.07525026 22.98779352 0.0625 20.125 C0.05748127 18.17708447 0.05291901 16.2291677 0.04882812 14.28125 C0.03783742 9.52080282 0.02059277 4.76041493 0 0 Z " fill="#034CAD" transform="translate(126,114)"/>
<path d="M0 0 C0.66 0 1.32 0 2 0 C0.63998985 4.47052842 -1.13947238 8.39990568 -3.375 12.5 C-3.96023437 13.5828125 -4.54546875 14.665625 -5.1484375 15.78125 C-6.99066561 18.98377312 -8.81843942 22.01943164 -11 25 C-11.66 25 -12.32 25 -13 25 C-13.27199219 25.58652344 -13.54398437 26.17304688 -13.82421875 26.77734375 C-22.96588604 44.05843573 -46.86720354 57.69476381 -64.88964844 63.43457031 C-71.3730097 65.1716671 -78.08562569 65.95678034 -84.74072266 66.73364258 C-86.18488545 66.9039021 -87.62759293 67.08735916 -89.06787109 67.2878418 C-93.98668272 67.96915958 -98.79551175 68.18309992 -103.75 68.1875 C-104.49121094 68.19974609 -105.23242188 68.21199219 -105.99609375 68.22460938 C-109.81787651 68.23490143 -112.76290641 68.15522284 -116 66 C-113.525 65.01 -113.525 65.01 -111 64 C-111.33 63.34 -111.66 62.68 -112 62 C-111.41734375 62.01047363 -110.8346875 62.02094727 -110.234375 62.03173828 C-77.8871491 62.53398491 -49.90705185 56.06820793 -26 33 C-24.64492244 31.35096381 -23.30701075 29.68738806 -22 28 C-21.236875 27.29875 -20.47375 26.5975 -19.6875 25.875 C-15.77595986 21.69056171 -12.96658356 16.88161156 -10 12 C-9.01 12.33 -8.02 12.66 -7 13 C-4.69 8.71 -2.38 4.42 0 0 Z " fill="#111111" transform="translate(244,194)"/>
<path d="M0 0 C5.02164266 7.53246399 4.35718721 17.99648751 4.3125 26.75 C4.30512817 28.46461426 4.30512817 28.46461426 4.29760742 30.21386719 C4.17840621 38.83303189 3.42813676 46.68906037 1 55 C0.52433594 56.68996094 0.52433594 56.68996094 0.0390625 58.4140625 C-4.03357006 71.20963855 -11.29944538 83.77684832 -20 94 C-20.66 94 -21.32 94 -22 94 C-22.23203125 94.56332031 -22.4640625 95.12664062 -22.703125 95.70703125 C-31.63555869 111.50021973 -55.47696595 121.03932121 -71.5390625 126.3359375 C-74 127 -74 127 -77 127 C-77.33 126.34 -77.66 125.68 -78 125 C-79.65 125 -81.3 125 -83 125 C-79.49649732 123.00798351 -75.96767564 122.18429176 -72.0625 121.25 C-62.28554141 118.77670149 -53.22602375 114.90127791 -45 109 C-44.21625 108.54496094 -43.4325 108.08992188 -42.625 107.62109375 C-21.06425209 94.91127786 -8.24611714 72.73524515 -2 49 C-1.81977295 48.38592285 -1.6395459 47.7718457 -1.45385742 47.13916016 C0.3209462 40.43120385 0.27076434 33.79353109 0.20581055 26.88818359 C0.18747219 24.87194202 0.18530212 22.85616042 0.18554688 20.83984375 C0.16885978 13.5225733 0.16885978 13.5225733 -0.57299805 6.25439453 C-1 3 -1 3 0 0 Z " fill="#5D5D5D" transform="translate(244,128)"/>
<path d="M0 0 C4.1649956 3.76660471 6.62960368 7.46280839 9.0625 12.5 C9.57792358 13.54861206 9.57792358 13.54861206 10.10375977 14.6184082 C19.710071 34.69935916 20.63120384 55.87211331 14 77 C13.66742188 78.17691406 13.33484375 79.35382813 12.9921875 80.56640625 C6.82975799 101.89229419 -8.59427338 117.46292088 -27.60571289 128.26928711 C-33.46972596 131.43784197 -39.5387443 133.39107071 -46 135 C-46.82371094 135.21269531 -47.64742187 135.42539063 -48.49609375 135.64453125 C-62.27914965 138.96488614 -76.91178692 140.09513457 -90 134 C-86.23968612 131.49312408 -85.29420079 132.14313494 -81 133 C-76.73068269 133.21202269 -72.46161298 133.18510285 -68.1875 133.1875 C-67.04990234 133.19974609 -65.91230469 133.21199219 -64.74023438 133.22460938 C-58.20244443 133.23592696 -52.29260235 132.79010182 -46 131 C-45.01773438 130.73960937 -44.03546875 130.47921875 -43.0234375 130.2109375 C-28.67996133 125.68364561 -17.45265408 118.72188911 -7 108 C-6.33484375 107.34386719 -5.6696875 106.68773437 -4.984375 106.01171875 C8.52532305 91.802194 15.43939164 71.1471603 15.3125 51.8125 C15.30686035 50.89903809 15.3012207 49.98557617 15.29541016 49.04443359 C15.00903155 32.88530794 10.84738961 16.7561014 1.1015625 3.63671875 C0 2 0 2 0 0 Z " fill="#1D1D1D" transform="translate(214,103)"/>
<path d="M0 0 C16.71240233 15.65041021 26.04603078 34.06060192 27.5859375 56.89453125 C27.99227714 79.92890965 19.38885586 100.15019847 3.71875 116.91796875 C2.61455397 118.03152238 1.47999758 119.11494367 0.3359375 120.1875 C-0.3240625 119.8575 -0.9840625 119.5275 -1.6640625 119.1875 C-1.20257813 118.78402344 -0.74109375 118.38054687 -0.265625 117.96484375 C10.04249957 108.36973175 17.08299892 96.56187264 21.3359375 83.1875 C21.56796875 82.50042969 21.8 81.81335938 22.0390625 81.10546875 C24.37912062 73.70085628 24.53075801 66.00562628 24.5234375 58.3125 C24.522229 56.99511841 24.522229 56.99511841 24.52099609 55.65112305 C24.46367189 49.59330396 24.0604773 44.03177378 22.3359375 38.1875 C21.6759375 37.8575 21.0159375 37.5275 20.3359375 37.1875 C19.52402304 35.40187653 18.786179 33.58229858 18.0859375 31.75 C15.68318769 25.82040689 12.87999055 20.50797666 9.3359375 15.1875 C8.84738281 14.43855469 8.35882813 13.68960938 7.85546875 12.91796875 C-0.42301012 1.24633557 -12.62442195 -5.66922192 -25.6640625 -10.8125 C-26.73785156 -11.25851563 -27.81164062 -11.70453125 -28.91796875 -12.1640625 C-40.19128633 -16.15245644 -53.70295913 -15.75430425 -65.33764648 -13.2331543 C-68.1886487 -12.71764618 -69.29757468 -13.20666898 -71.6640625 -14.8125 C-71.9940625 -15.4725 -72.3240625 -16.1325 -72.6640625 -16.8125 C-47.1368556 -22.6404095 -20.03637774 -17.04090598 0 0 Z " fill="#1B1B1B" transform="translate(198.6640625,93.8125)"/>
<path d="M0 0 C5.41982839 0.54759924 9.79775967 1.88982735 14.75 4.125 C15.44955811 4.43775879 16.14911621 4.75051758 16.86987305 5.07275391 C32.34436385 12.1623415 47.88018154 23.40829046 57 38 C58.62949642 40.0021793 60.26008148 42.00043545 61.92578125 43.97265625 C63 46 63 46 62.48046875 48.26953125 C61.78603653 52.21593876 63.40261722 55.09974144 65 58.625 C68.12932455 65.61202636 68.12932455 65.61202636 67 69 C67 68.34 67 67.68 67 67 C65.515 66.505 65.515 66.505 64 66 C63.078125 64.390625 63.078125 64.390625 62.25 62.25 C52.13597552 37.93744115 35.84216961 19.27590196 12 8 C9.35301802 6.92601961 6.69367999 5.95475991 4 5 C4.66 4.67 5.32 4.34 6 4 C6 3.34 6 2.68 6 2 C3.03 1.505 3.03 1.505 0 1 C0 0.67 0 0.34 0 0 Z " fill="#1D1D1D" transform="translate(176,58)"/>
<path d="M0 0 C7.64118186 3.3176494 14.03821937 10.46011723 19 17 C19.76957031 17.94359375 20.53914063 18.8871875 21.33203125 19.859375 C22.1807644 20.92622749 23.02840852 21.99394721 23.875 23.0625 C24.67679688 24.06410156 25.47859375 25.06570312 26.3046875 26.09765625 C28.34773983 29.59532418 27.82778598 30.2182654 27 34 C27.90465171 36.65176034 28.85011538 39.08732361 30 41.625 C33.12932455 48.61202636 33.12932455 48.61202636 32 52 C32 51.34 32 50.68 32 50 C30.515 49.505 30.515 49.505 29 49 C27.90234375 47.109375 27.90234375 47.109375 26.9375 44.75 C26.5971875 43.93015625 26.256875 43.1103125 25.90625 42.265625 C25.6071875 41.51796875 25.308125 40.7703125 25 40 C24.4740625 38.7625 24.4740625 38.7625 23.9375 37.5 C23 35 23 35 22.49609375 33.0859375 C19.02066971 20.71430223 8.89489268 10.89489268 0 2 C0 1.34 0 0.68 0 0 Z " fill="#626262" transform="translate(211,75)"/>
<path d="M0 0 C0 2.64 0 5.28 0 8 C1.98 8 3.96 8 6 8 C6 9.65 6 11.3 6 13 C3.69 13 1.38 13 -1 13 C-1 18.61 -1 24.22 -1 30 C-2.32 30.33 -3.64 30.66 -5 31 C-6.0712828 24.97403427 -6.09945415 19.11090483 -6 13 C-7.32 13 -8.64 13 -10 13 C-10 11.68 -10 10.36 -10 9 C-8.68 9 -7.36 9 -6 9 C-6 6.69 -6 4.38 -6 2 C-2.25 0 -2.25 0 0 0 Z " fill="#0F0F0F" transform="translate(141,177)"/>
<path d="M0 0 C1.258125 -0.020625 2.51625 -0.04125 3.8125 -0.0625 C4.52019531 -0.07410156 5.22789063 -0.08570313 5.95703125 -0.09765625 C8.59587414 0.02848347 10.65126249 0.82563124 13 2 C13.43518641 7.30927425 13.43518641 7.30927425 13 10 C10.16346849 12.45321644 8.74876504 13 5 13 C5 15.97 5 18.94 5 22 C3.68 22 2.36 22 1 22 C0.67 22.66 0.34 23.32 0 24 C-1.01044795 20.96865616 -1.05032949 19.25604057 -0.87890625 16.11328125 C-0.83056641 15.17548828 -0.78222656 14.23769531 -0.73242188 13.27148438 C-0.67634766 12.29501953 -0.62027344 11.31855469 -0.5625 10.3125 C-0.51029297 9.32443359 -0.45808594 8.33636719 -0.40429688 7.31835938 C-0.27464694 4.87858324 -0.13968258 2.43921895 0 0 Z " fill="#161616" transform="translate(86,181)"/>
<path d="M0 0 C9.60291715 8.79571541 12.54199735 25.935808 13.16796875 38.32421875 C13.30359319 61.67874661 5.37809613 81.61474254 -10.6171875 98.73046875 C-11.72138353 99.84402238 -12.85593992 100.92744367 -14 102 C-14.66 101.67 -15.32 101.34 -16 101 C-15.53851563 100.59652344 -15.07703125 100.19304687 -14.6015625 99.77734375 C-4.29343793 90.18223175 2.74706142 78.37437264 7 65 C7.23203125 64.31292969 7.4640625 63.62585938 7.703125 62.91796875 C10.04318312 55.51335628 10.19482051 47.81812628 10.1875 40.125 C10.18669434 39.24674561 10.18588867 38.36849121 10.18505859 37.46362305 C10.12773439 31.40580396 9.7245398 25.84427378 8 20 C7.34 19.67 6.68 19.34 6 19 C5.05767314 16.5663895 4.22065625 14.17175529 3.4375 11.6875 C3.21642578 11.01009766 2.99535156 10.33269531 2.76757812 9.63476562 C1.73627786 6.4473935 0.747417 3.26680013 0 0 Z " fill="#3E3E3E" transform="translate(213,112)"/>
<path d="M0 0 C4.1649956 3.76660471 6.62960368 7.46280839 9.0625 12.5 C9.40611572 13.19907471 9.74973145 13.89814941 10.10375977 14.6184082 C19.710071 34.69935916 20.63120384 55.87211331 14 77 C13.33043969 79.33250464 12.663339 81.66571847 12 84 C10.23383766 90.00495196 8.17694109 93.4296958 3 97 C4.36642183 93.45818024 5.9129338 90.02659546 7.51342773 86.58520508 C17.18966986 65.40484417 18.01359548 42.00082454 9.94628906 20.08032227 C7.64343154 14.14609256 4.9113172 8.7652347 1.1015625 3.63671875 C0 2 0 2 0 0 Z " fill="#3C3C3C" transform="translate(214,103)"/>
<path d="M0 0 C1.64574566 -0.02688151 3.29161413 -0.04634123 4.9375 -0.0625 C5.85402344 -0.07410156 6.77054688 -0.08570313 7.71484375 -0.09765625 C10 0 10 0 11 1 C11.15135944 2.7872057 11.22175778 4.58161876 11.25 6.375 C11.28867188 7.84066406 11.28867188 7.84066406 11.328125 9.3359375 C11 12 11 12 9.7421875 13.8359375 C6.60267005 15.93364199 3.68343537 15.23764099 0 15 C-1 14 -1 14 -1.1328125 11.34765625 C-1.13023437 10.26355469 -1.12765625 9.17945313 -1.125 8.0625 C-1.12757813 6.98097656 -1.13015625 5.89945313 -1.1328125 4.78515625 C-1 2 -1 2 0 0 Z " fill="#121212" transform="translate(167,188)"/>
<path d="M0 0 C0.80308594 0.01417969 1.60617188 0.02835938 2.43359375 0.04296875 C3.64208984 0.05263672 3.64208984 0.05263672 4.875 0.0625 C6.87109375 0.23046875 6.87109375 0.23046875 7.87109375 1.23046875 C8.02245319 3.01767445 8.09285153 4.81208751 8.12109375 6.60546875 C8.15976563 8.07113281 8.15976563 8.07113281 8.19921875 9.56640625 C7.87109375 12.23046875 7.87109375 12.23046875 6.578125 14.0625 C3.76118625 15.98987914 1.16458613 15.52987715 -2.12890625 15.23046875 C-4.12890625 13.23046875 -4.12890625 13.23046875 -4.39453125 10.69921875 C-4.389375 9.71953125 -4.38421875 8.73984375 -4.37890625 7.73046875 C-4.3840625 6.75078125 -4.38921875 5.77109375 -4.39453125 4.76171875 C-4.05521623 1.52824617 -3.31755276 0.35914791 0 0 Z " fill="#0D0D0D" transform="translate(198.12890625,187.76953125)"/>
<path d="M0 0 C2.375 1 2.375 1 3.6875 3.0625 C4.0278125 4.0215625 4.0278125 4.0215625 4.375 5 C2.04285852 6.20628008 -0.12142139 7.1654738 -2.625 8 C-2.625 9.98 -2.625 11.96 -2.625 14 C-1.635 14 -0.645 14 0.375 14 C0.045 15.65 -0.285 17.3 -0.625 19 C-1.615 19 -2.605 19 -3.625 19 C-3.625 21.31 -3.625 23.62 -3.625 26 C-4.615 26 -5.605 26 -6.625 26 C-6.955 24.02 -7.285 22.04 -7.625 20 C-8.615 20 -9.605 20 -10.625 20 C-6.36196145 0 -6.36196145 0 0 0 Z " fill="#151515" transform="translate(160.625,177)"/>
<path d="M0 0 C1.47906892 -0.02689216 2.95827483 -0.04634621 4.4375 -0.0625 C5.26121094 -0.07410156 6.08492188 -0.08570313 6.93359375 -0.09765625 C9 0 9 0 10 1 C10.12514928 2.97619447 10.1757276 4.95738173 10.1875 6.9375 C10.20167969 8.01902344 10.21585938 9.10054687 10.23046875 10.21484375 C10 13 10 13 8 15 C5.28545044 15.32752234 2.74769241 15.1308425 0 15 C-1 14 -1 14 -1.1328125 11.34765625 C-1.13023438 10.26355469 -1.12765625 9.17945313 -1.125 8.0625 C-1.12757812 6.98097656 -1.13015625 5.89945313 -1.1328125 4.78515625 C-1 2 -1 2 0 0 Z " fill="#111111" transform="translate(102,188)"/>
<path d="M0 0 C1.20210617 -0.01210762 1.20210617 -0.01210762 2.42849731 -0.02445984 C4.10400304 -0.03816702 5.77953513 -0.04894764 7.45507812 -0.05688477 C9.16772653 -0.06851426 10.88033575 -0.08913438 12.59277344 -0.1184082 C15.08292942 -0.16085943 17.57202841 -0.17720801 20.0625 -0.1875 C20.82811249 -0.20500809 21.59372498 -0.22251617 22.38253784 -0.24055481 C24.53857422 -0.23168945 24.53857422 -0.23168945 28.1328125 0.23828125 C30.13720703 2.26489258 30.13720703 2.26489258 31.1328125 4.23828125 C30.4728125 4.23828125 29.8128125 4.23828125 29.1328125 4.23828125 C29.1328125 4.89828125 29.1328125 5.55828125 29.1328125 6.23828125 C27.946875 5.90828125 26.7609375 5.57828125 25.5390625 5.23828125 C18.93892873 3.77158486 12.35661118 4.10147965 5.6328125 4.23828125 C-2.54438663 4.40465356 -9.95286009 4.44052888 -17.8671875 2.23828125 C-17.8671875 1.90828125 -17.8671875 1.57828125 -17.8671875 1.23828125 C-11.88595803 0.50293272 -6.02372018 0.05905608 0 0 Z " fill="#5D5D5D" transform="translate(143.8671875,53.76171875)"/>
<path d="M0 0 C0.66 0.33 1.32 0.66 2 1 C0.02 1.99 0.02 1.99 -2 3 C-2 4.32 -2 5.64 -2 7 C-9.86354059 11.50980348 -17.67839062 15.49998298 -26.25 18.5 C-26.97630615 18.75475098 -27.7026123 19.00950195 -28.45092773 19.27197266 C-31.41762975 20.27315127 -33.84818193 21 -37 21 C-37.33 20.34 -37.66 19.68 -38 19 C-39.65 19 -41.3 19 -43 19 C-39.49649732 17.00798351 -35.96767564 16.18429176 -32.0625 15.25 C-22.30924375 12.78269752 -13.17285957 8.92532319 -5 3 C-2.25 1.1875 -2.25 1.1875 0 0 Z " fill="#CCCCCC" transform="translate(204,234)"/>
<path d="M0 0 C0.33 0.99 0.66 1.98 1 3 C2.65 2.34 4.3 1.68 6 1 C7.5625 2.25 7.5625 2.25 9 4 C8.6875 6.1875 8.6875 6.1875 8 8 C6.68 7.67 5.36 7.34 4 7 C1.24331998 10.95523655 0.4682121 14.22423661 0 19 C-1.65 19.33 -3.3 19.66 -5 20 C-5 13.73 -5 7.46 -5 1 C-3 0 -3 0 0 0 Z " fill="#0A0A0A" transform="translate(120,184)"/>
<path d="M0 0 C3.63 0 7.26 0 11 0 C11 3.63 11 7.26 11 11 C2.25 15 2.25 15 0 15 C0 10.05 0 5.1 0 0 Z " fill="#F7F7FA" transform="translate(158,126)"/>
<path d="M0 0 C1.83606715 0.09617989 3.67374336 0.16361294 5.51171875 0.2109375 C7.01895508 0.25347656 7.01895508 0.25347656 8.55664062 0.296875 C10.65541247 0.3492461 12.7544036 0.39342893 14.85351562 0.4296875 C16.35495117 0.47609375 16.35495117 0.47609375 17.88671875 0.5234375 C19.25123169 0.5531665 19.25123169 0.5531665 20.64331055 0.58349609 C23.38632903 1.06827694 24.28312291 1.86162692 26 4 C13.76605624 5.71704474 2.40994218 6.31356975 -9 1 C-5.15653759 -1.56230827 -4.4616574 -0.81657677 0 0 Z " fill="#424242" transform="translate(133,236)"/>
<path d="M0 0 C1.29409289 0.61996078 2.58519673 1.24616353 3.875 1.875 C4.95394531 2.39707031 4.95394531 2.39707031 6.0546875 2.9296875 C8 4 8 4 10 6 C10.680625 6.66 11.36125 7.32 12.0625 8 C21.25316301 17.24504563 29.54765601 26.18998678 33 39 C30.54846785 36.76226426 29.08299326 34.53037177 27.5 31.625 C21.39828397 21.34053515 13.8605672 12.97639183 4.06420898 6.15820312 C2.66267102 5.16863174 1.32438579 4.09067065 0 3 C0 2.01 0 1.02 0 0 Z " fill="#101010" transform="translate(202,71)"/>
<path d="M0 0 C-0.33 8.91 -0.66 17.82 -1 27 C-1.99 27.33 -2.98 27.66 -4 28 C-5.03628463 22.89259717 -5.15022956 17.99717539 -5.125 12.8125 C-5.12886719 12.00619141 -5.13273438 11.19988281 -5.13671875 10.36914062 C-5.13542969 9.59376953 -5.13414062 8.81839844 -5.1328125 8.01953125 C-5.13168457 7.31932861 -5.13055664 6.61912598 -5.12939453 5.89770508 C-5 4 -5 4 -4 1 C-2 0 -2 0 0 0 Z " fill="#0C0C0C" transform="translate(185,177)"/>
<path d="M0 0 C0 0.33 0 0.66 0 1 C-5.44808673 2.79423656 -10.40909647 3.36817824 -16.125 3.5625 C-20.87870643 3.74593531 -25.3292474 4.05535341 -30 5 C-32.70637529 4.02269781 -33.70256222 3.59487555 -35 1 C-23.28898263 -1.67364736 -11.88703935 -0.80986157 0 0 Z " fill="#252525" transform="translate(161,76)"/>
<path d="M0 0 C5.02164266 7.53246399 4.35718721 17.99648751 4.3125 26.75 C4.30758545 27.89307617 4.3026709 29.03615234 4.29760742 30.21386719 C4.10582607 44.08113382 1.01177381 56.14371066 -4 69 C-4.66 68.01 -5.32 67.02 -6 66 C-5.171875 62.92578125 -5.171875 62.92578125 -3.75 59.3125 C2.75194719 42.20660328 4.38644986 22.93001402 0 5 C-0.33 4.34 -0.66 3.68 -1 3 C-0.67 2.01 -0.34 1.02 0 0 Z " fill="#D2D2D2" transform="translate(244,128)"/>
<path d="M0 0 C0.66 0.33 1.32 0.66 2 1 C1.83457606 9.91785405 0.20449001 17.30465652 -2.84375 25.58984375 C-3.91717205 28.75571353 -4.49615987 31.70637838 -5 35 C-6.83276922 39.6735615 -8.46768296 41.79508901 -13 44 C-11.63328485 40.45741994 -10.08526397 37.02545568 -8.48681641 33.58227539 C-3.51500763 22.71809843 -1.02672257 11.90998186 0 0 Z " fill="#505050" transform="translate(230,156)"/>
<path d="M0 0 C-0.60546875 1.86328125 -0.60546875 1.86328125 -2 4 C-4.86328125 5.23046875 -4.86328125 5.23046875 -8.3125 6.1875 C-9.44300781 6.51105469 -10.57351562 6.83460938 -11.73828125 7.16796875 C-16.00270335 8.25577942 -19.90131084 9.13726592 -24.3125 9.0625 C-26.1378125 9.0315625 -26.1378125 9.0315625 -28 9 C-27.67 8.34 -27.34 7.68 -27 7 C-24.47667504 6.26588779 -21.99738413 5.63662628 -19.4375 5.0625 C-14.92329911 4.0022144 -10.50834141 2.96371718 -6.1875 1.25 C-3 0 -3 0 0 0 Z " fill="#161616" transform="translate(183,230)"/>
<path d="M0 0 C1.65 0 3.3 0 5 0 C5 4.62 5 9.24 5 14 C3.35 14.33 1.7 14.66 0 15 C0 10.05 0 5.1 0 0 Z " fill="#2B2B2B" transform="translate(187,188)"/>
<path d="M0 0 C3.44072084 2.73599489 4.69297619 6.5318568 6.25 10.5 C6.53101563 11.17675781 6.81203125 11.85351562 7.1015625 12.55078125 C9.1241998 17.62740061 9.1241998 17.62740061 8 21 C8 20.34 8 19.68 8 19 C7.01 18.67 6.02 18.34 5 18 C3.90234375 16.109375 3.90234375 16.109375 2.9375 13.75 C2.60234375 12.93660156 2.2671875 12.12320313 1.921875 11.28515625 C1.46554688 10.15400391 1.46554688 10.15400391 1 9 C0.566875 8.071875 0.13375 7.14375 -0.3125 6.1875 C-1.09639781 3.69327968 -0.89771234 2.42382331 0 0 Z " fill="#6D6D6D" transform="translate(235,106)"/>
<path d="M0 0 C0.66 0 1.32 0 2 0 C-1.1665364 7.50586405 -8.97731813 12.41394968 -16 16 C-16 13 -16 13 -13.875 10.5 C-11.01352208 8.01175833 -8.36913492 6.68456746 -5 5 C-3.3142876 3.35259924 -1.6436814 1.68933922 0 0 Z " fill="#CECECE" transform="translate(218,224)"/>
<path d="M0 0 C0 0.66 0 1.32 0 2 C-1.60149886 2.67305018 -3.20631029 3.33822227 -4.8125 4 C-5.70582031 4.37125 -6.59914062 4.7425 -7.51953125 5.125 C-10 6 -10 6 -13 6 C-13.33 5.34 -13.66 4.68 -14 4 C-15.65 4 -17.3 4 -19 4 C-15.55024492 1.97772978 -12.31145993 1.43481259 -8.375 0.875 C-7.22773438 0.70742187 -6.08046875 0.53984375 -4.8984375 0.3671875 C-2 0 -2 0 0 0 Z " fill="#D2D2D2" transform="translate(180,249)"/>
<path d="M0 0 C0.66 0 1.32 0 2 0 C0.6077541 4.62675657 -1.29520984 8.64686231 -3.625 12.875 C-4.25664062 14.02742187 -4.88828125 15.17984375 -5.5390625 16.3671875 C-6.02117187 17.23601562 -6.50328125 18.10484375 -7 19 C-7.99 19 -8.98 19 -10 19 C-8.6553905 15.38636196 -7.02615043 12.21479833 -5 8.9375 C-3.19462309 6.00827597 -1.49037371 3.1025568 0 0 Z " fill="#3C3C3C" transform="translate(244,194)"/>
<path d="M0 0 C2.99468832 0.03835561 5.94968648 0.1453656 8.9375 0.3125 C9.77474609 0.34794922 10.61199219 0.38339844 11.47460938 0.41992188 C12.27576172 0.46310547 13.07691406 0.50628906 13.90234375 0.55078125 C14.63960693 0.58856689 15.37687012 0.62635254 16.13647461 0.6652832 C18 1 18 1 20 3 C17.24973583 3.05404449 14.50053797 3.09369306 11.75 3.125 C10.97269531 3.14175781 10.19539062 3.15851563 9.39453125 3.17578125 C2.27568856 3.23662606 2.27568856 3.23662606 -1 1 C-0.67 0.67 -0.34 0.34 0 0 Z " fill="#555555" transform="translate(129,259)"/>
<path d="M0 0 C0.66 0.99 1.32 1.98 2 3 C1.34 3 0.68 3 0 3 C0 3.66 0 4.32 0 5 C-4.95 4.01 -9.9 3.02 -15 2 C-15 1.67 -15 1.34 -15 1 C-13.0641649 0.63684334 -11.12624752 0.28477269 -9.1875 -0.0625 C-8.10855469 -0.25972656 -7.02960938 -0.45695312 -5.91796875 -0.66015625 C-3 -1 -3 -1 0 0 Z " fill="#3C3C3C" transform="translate(173,55)"/>
<path d="M0 0 C2.6427068 2.35679992 4.07178895 4.76914003 5.625 7.9375 C6.05039063 8.79214844 6.47578125 9.64679688 6.9140625 10.52734375 C7.86659936 12.69624961 8.51731714 14.68848543 9 17 C8.34 17 7.68 17 7 17 C6.67 17.66 6.34 18.32 6 19 C5.18563413 16.58394775 4.37344603 14.16720002 3.5625 11.75 C3.33240234 11.06808594 3.10230469 10.38617188 2.86523438 9.68359375 C1.79196286 6.47933387 0.73984392 3.29953381 0 0 Z " fill="#686868" transform="translate(213,112)"/>
<path d="M0 0 C0.66 0.33 1.32 0.66 2 1 C0.02 1.99 0.02 1.99 -2 3 C-2 4.32 -2 5.64 -2 7 C-3.98 7.99 -5.96 8.98 -8 10 C-8 9.34 -8 8.68 -8 8 C-9.32 8.33 -10.64 8.66 -12 9 C-8.55242282 5.37097139 -4.73722427 1.79687817 0 0 Z " fill="#909090" transform="translate(204,234)"/>
<path d="M0 0 C6.28260706 -0.23268915 11.88019467 0.59545452 18 2 C17.01 2.495 17.01 2.495 16 3 C16 3.66 16 4.32 16 5 C10.72 3.68 5.44 2.36 0 1 C0 0.67 0 0.34 0 0 Z " fill="#242424" transform="translate(156,77)"/>
<path d="M0 0 C0 0.33 0 0.66 0 1 C-6.34823202 3.30844801 -12.29481414 3.19818283 -19 3 C-19.33 2.34 -19.66 1.68 -20 1 C-13.30386804 0.202163 -6.74233419 -0.12910853 0 0 Z " fill="#828282" transform="translate(161,76)"/>
<path d="M0 0 C0.66 0 1.32 0 2 0 C0.38808348 6.85921925 -1.35968328 13.46207289 -4 20 C-4.66 19.01 -5.32 18.02 -6 17 C-5.3461718 14.53852913 -4.62397545 12.34961451 -3.6875 10 C-3.44837891 9.3709375 -3.20925781 8.741875 -2.96289062 8.09375 C-2.31608766 6.39296449 -1.65853133 4.69627884 -1 3 C-0.67 2.01 -0.34 1.02 0 0 Z " fill="#C9C9C9" transform="translate(244,177)"/>
<path d="M0 0 C5.67853635 1.41963409 9.53174216 4.39363961 14 8 C13.34 8.66 12.68 9.32 12 10 C10.49460339 9.05016642 8.99579653 8.08988109 7.5 7.125 C6.6646875 6.59132813 5.829375 6.05765625 4.96875 5.5078125 C3.99421875 4.76144531 3.99421875 4.76144531 3 4 C3 3.34 3 2.68 3 2 C2.01 2 1.02 2 0 2 C0 1.34 0 0.68 0 0 Z " fill="#606060" transform="translate(197,66)"/>
<path d="M0 0 C5.45479185 0.56820748 9.91059256 1.94637945 15 4 C13.68 4.33 12.36 4.66 11 5 C11 5.66 11 6.32 11 7 C8.69 6.34 6.38 5.68 4 5 C4.66 4.67 5.32 4.34 6 4 C6 3.34 6 2.68 6 2 C3.03 1.505 3.03 1.505 0 1 C0 0.67 0 0.34 0 0 Z " fill="#424242" transform="translate(176,58)"/>
<path d="M0 0 C4.56454251 0.54339792 7.9728176 1.79463821 12 4 C12 4.66 12 5.32 12 6 C7.43545749 5.45660208 4.0271824 4.20536179 0 2 C0 1.34 0 0.68 0 0 Z " fill="#101010" transform="translate(172,80)"/>
<path d="M0 0 C0 3.66118199 -1.27930632 4.95156445 -3.62890625 7.640625 C-5.26929634 9.26699466 -6.84469833 10.18247178 -9 11 C-9.99 11.495 -9.99 11.495 -11 12 C-9.49650623 8.33213607 -7.36271208 6.31089607 -4.375 3.75 C-3.14910156 2.69039063 -3.14910156 2.69039063 -1.8984375 1.609375 C-1.27195312 1.07828125 -0.64546875 0.5471875 0 0 Z " fill="#282828" transform="translate(67,84)"/>
<path d="M0 0 C-1 2 -1 2 -2.5625 2.625 C-6.06398181 3.16368951 -9.45806833 3.05903219 -13 3 C-12.67 2.34 -12.34 1.68 -12 1 C-9.78515625 0.33203125 -9.78515625 0.33203125 -7.0625 -0.1875 C-6.16660156 -0.36667969 -5.27070313 -0.54585937 -4.34765625 -0.73046875 C-2 -1 -2 -1 0 0 Z " fill="#101010" transform="translate(168,236)"/>
<path d="M0 0 C4.29 0.33 8.58 0.66 13 1 C13 1.33 13 1.66 13 2 C10.33333333 2.66666667 7.66666667 3.33333333 5 4 C4.25234375 4.18691406 3.5046875 4.37382813 2.734375 4.56640625 C2.16203125 4.70949219 1.5896875 4.85257813 1 5 C1.33 3.68 1.66 2.36 2 1 C1.34 0.67 0.68 0.34 0 0 Z " fill="#1D1D1D" transform="translate(122,56)"/>
<path d="M0 0 C2.3129482 2.3129482 2.49580975 3.47904875 3.125 6.625 C3.29257813 7.44226563 3.46015625 8.25953125 3.6328125 9.1015625 C3.81457031 10.04128906 3.81457031 10.04128906 4 11 C3.67 10.34 3.34 9.68 3 9 C2.01 8.67 1.02 8.34 0 8 C-1.3125 6.1875 -1.3125 6.1875 -2 4 C-1.125 1.75 -1.125 1.75 0 0 Z " fill="#979797" transform="translate(240,116)"/>
<path d="M0 0 C3.96762024 2.86550351 6.65855818 5.67733819 9 10 C8.6015625 12.1875 8.6015625 12.1875 8 14 C6.85018626 12.23174858 5.70528078 10.46030479 4.5625 8.6875 C3.92441406 7.70136719 3.28632813 6.71523437 2.62890625 5.69921875 C1 3 1 3 0 0 Z " fill="#777777" transform="translate(230,94)"/>
<path d="M0 0 C3.21043882 1.38188453 5.04936365 2.92421903 7.25 5.625 C8.03117188 6.57246094 8.03117188 6.57246094 8.828125 7.5390625 C9.40820312 8.26222656 9.40820312 8.26222656 10 9 C9.67 9.66 9.34 10.32 9 11 C7.49403892 9.54782324 5.99537896 8.08807139 4.5 6.625 C3.6646875 5.81289062 2.829375 5.00078125 1.96875 4.1640625 C0 2 0 2 0 0 Z " fill="#555555" transform="translate(204,92)"/>
<path d="M0 0 C1 3 1 3 0.00390625 5.04296875 C-0.47175781 5.75066406 -0.94742188 6.45835937 -1.4375 7.1875 C-1.91058594 7.90292969 -2.38367188 8.61835938 -2.87109375 9.35546875 C-3.24363281 9.89816406 -3.61617187 10.44085938 -4 11 C-4.66 10.01 -5.32 9.02 -6 8 C-5.34 8 -4.68 8 -4 8 C-3.71125 7.05125 -3.4225 6.1025 -3.125 5.125 C-2 2 -2 2 0 0 Z " fill="#050505" transform="translate(241,197)"/>
<path d="M0 0 C1.32 0 2.64 0 4 0 C4 1.98 4 3.96 4 6 C2.68 6 1.36 6 0 6 C0 4.02 0 2.04 0 0 Z " fill="#E3E3E3" transform="translate(198,192)"/>
<path d="M0 0 C1.32 0 2.64 0 4 0 C4 1.98 4 3.96 4 6 C2.68 6 1.36 6 0 6 C0 4.02 0 2.04 0 0 Z " fill="#E9E9E9" transform="translate(170,192)"/>
<path d="M0 0 C0 1.65 0 3.3 0 5 C-1.65 5 -3.3 5 -5 5 C-5 3.68 -5 2.36 -5 1 C-2 0 -2 0 0 0 Z " fill="#5A5A5A" transform="translate(192,182)"/>
<path d="M0 0 C5.96351455 1.27789598 8.48417174 4.33716394 12 9 C8.98472262 7.59422879 6.4052059 5.93873852 3.75 3.9375 C3.04359375 3.41027344 2.3371875 2.88304688 1.609375 2.33984375 C1.07828125 1.89769531 0.5471875 1.45554687 0 1 C0 0.67 0 0.34 0 0 Z " fill="#484848" transform="translate(192,83)"/>
<path d="M0 0 C-1.4638611 4.39158329 -3.97831338 4.87947433 -8 7 C-8 6.01 -8 5.02 -8 4 C-2.74285714 0 -2.74285714 0 0 0 Z " fill="#EDEDED" transform="translate(210,233)"/>
<path d="M0 0 C0.598125 0.350625 1.19625 0.70125 1.8125 1.0625 C1.8125 1.7225 1.8125 2.3825 1.8125 3.0625 C-0.4975 3.0625 -2.8075 3.0625 -5.1875 3.0625 C-5.1875 2.0725 -5.1875 1.0825 -5.1875 0.0625 C-2.1875 -0.9375 -2.1875 -0.9375 0 0 Z " fill="#191919" transform="translate(125.1875,234.9375)"/>
<path d="M0 0 C0.33 0.66 0.66 1.32 1 2 C-1.02882906 4.94180214 -3.05819786 6.97117094 -6 9 C-4.68775452 5.06326356 -3.08089673 2.77280706 0 0 Z " fill="#424242" transform="translate(223,191)"/>
<path d="M0 0 C0.66 0 1.32 0 2 0 C1.6875 1.9375 1.6875 1.9375 1 4 C0.01 4.33 -0.98 4.66 -2 5 C-2.33 5.99 -2.66 6.98 -3 8 C-3.66 7.34 -4.32 6.68 -5 6 C-3.38405168 3.95880212 -1.7143618 1.95927063 0 0 Z " fill="#E2E2E2" transform="translate(224,217)"/>
<path d="M0 0 C1.32 0 2.64 0 4 0 C3.67 1.65 3.34 3.3 3 5 C2.01 5 1.02 5 0 5 C0 3.35 0 1.7 0 0 Z " fill="#FAFAFA" transform="translate(91,185)"/>
<path d="M0 0 C0.99 0 1.98 0 3 0 C3 1.98 3 3.96 3 6 C2.01 6 1.02 6 0 6 C0 4.02 0 2.04 0 0 Z " fill="#F8F8F8" transform="translate(105,192)"/>
<path d="M0 0 C2.25245881 2.68841859 3.88213958 4.64641875 5 8 C4.01 8 3.02 8 2 8 C0.93224776 6.03533587 -0.06553465 4.03144641 -1 2 C-0.67 1.34 -0.34 0.68 0 0 Z " fill="#191919" transform="translate(235,95)"/>
<path d="M0 0 C2 3 2 3 1.625 5.1875 C1.41875 5.785625 1.2125 6.38375 1 7 C-0.32 7.33 -1.64 7.66 -3 8 C-2.01 5.36 -1.02 2.72 0 0 Z " fill="#636363" transform="translate(224,184)"/>
</svg>
